<?xml version="1.0" encoding="utf-8" standalone="no"?>
<!DOCTYPE svg PUBLIC "-//W3C//DTD SVG 1.1//EN"
  "http://www.w3.org/Graphics/SVG/1.1/DTD/svg11.dtd">
<svg height="576pt" version="1.1" viewBox="0 0 720 576" width="720pt" xmlns="http://www.w3.org/2000/svg" xmlns:xlink="http://www.w3.org/1999/xlink">
 <metadata>
  <rdf:RDF xmlns:cc="http://creativecommons.org/ns#" xmlns:dc="http://purl.org/dc/elements/1.1/" xmlns:rdf="http://www.w3.org/1999/02/22-rdf-syntax-ns#">
   <cc:Work>
    <dc:type rdf:resource="http://purl.org/dc/dcmitype/StillImage"/>
    <dc:date>2023-10-24T02:35:24.068207</dc:date>
    <dc:format>image/svg+xml</dc:format>
    <dc:creator>
     <cc:Agent>
      <dc:title>Matplotlib v3.4.3, https://matplotlib.org/</dc:title>
     </cc:Agent>
    </dc:creator>
   </cc:Work>
  </rdf:RDF>
 </metadata>
 <defs>
  <style type="text/css">*{stroke-linecap:butt;stroke-linejoin:round;}</style>
 </defs>
 <g id="figure_1">
  <g id="patch_1">
   <path d="M 0 576 
L 720 576 
L 720 0 
L 0 0 
z
" style="fill:#ffffff;"/>
  </g>
  <g id="axes_1">
   <g id="patch_2">
    <path d="M 90 512.64 
L 648 512.64 
L 648 69.12 
L 90 69.12 
z
" style="fill:#ffffff;"/>
   </g>
   <g id="PolyCollection_1">
    <defs>
     <path d="M 90 -240.768 
L 90 -63.36 
L 91.398496 -63.36 
L 92.796992 -63.36 
L 94.195489 -63.36 
L 95.593985 -63.36 
L 96.992481 -63.36 
L 98.390977 -63.36 
L 99.789474 -63.36 
L 101.18797 -63.36 
L 102.586466 -63.36 
L 103.984962 -63.36 
L 105.383459 -63.36 
L 106.781955 -63.36 
L 108.180451 -63.36 
L 109.578947 -63.36 
L 110.977444 -63.36 
L 112.37594 -63.36 
L 113.774436 -63.36 
L 115.172932 -63.36 
L 116.571429 -63.36 
L 117.969925 -63.36 
L 119.368421 -63.36 
L 120.766917 -63.36 
L 122.165414 -63.36 
L 123.56391 -63.36 
L 124.962406 -63.36 
L 126.360902 -63.36 
L 127.759398 -63.36 
L 129.157895 -63.36 
L 130.556391 -63.36 
L 131.954887 -63.36 
L 133.353383 -63.36 
L 134.75188 -63.36 
L 136.150376 -63.36 
L 137.548872 -63.36 
L 138.947368 -63.36 
L 140.345865 -63.36 
L 141.744361 -63.36 
L 143.142857 -63.36 
L 144.541353 -63.36 
L 145.93985 -63.36 
L 147.338346 -63.36 
L 148.736842 -63.36 
L 150.135338 -63.36 
L 151.533835 -63.36 
L 152.932331 -63.36 
L 154.330827 -63.36 
L 155.729323 -63.36 
L 157.12782 -63.36 
L 158.526316 -63.36 
L 159.924812 -63.36 
L 161.323308 -63.36 
L 162.721805 -63.36 
L 164.120301 -63.36 
L 165.518797 -63.36 
L 166.917293 -63.36 
L 168.315789 -63.36 
L 169.714286 -63.36 
L 171.112782 -63.36 
L 172.511278 -63.36 
L 173.909774 -63.36 
L 175.308271 -63.36 
L 176.706767 -63.36 
L 178.105263 -63.36 
L 179.503759 -63.36 
L 180.902256 -63.36 
L 182.300752 -63.36 
L 183.699248 -63.36 
L 185.097744 -63.36 
L 186.496241 -63.36 
L 187.894737 -63.36 
L 189.293233 -63.36 
L 190.691729 -63.36 
L 192.090226 -63.36 
L 193.488722 -63.36 
L 194.887218 -63.36 
L 196.285714 -63.36 
L 197.684211 -63.36 
L 199.082707 -63.36 
L 200.481203 -63.36 
L 200.481203 -196.860632 
L 200.481203 -196.860632 
L 199.082707 -197.416421 
L 197.684211 -197.972211 
L 196.285714 -198.528 
L 194.887218 -199.083789 
L 193.488722 -199.639579 
L 192.090226 -200.195368 
L 190.691729 -200.751158 
L 189.293233 -201.306947 
L 187.894737 -201.862737 
L 186.496241 -202.418526 
L 185.097744 -202.974316 
L 183.699248 -203.530105 
L 182.300752 -204.085895 
L 180.902256 -204.641684 
L 179.503759 -205.197474 
L 178.105263 -205.753263 
L 176.706767 -206.309053 
L 175.308271 -206.864842 
L 173.909774 -207.420632 
L 172.511278 -207.976421 
L 171.112782 -208.532211 
L 169.714286 -209.088 
L 168.315789 -209.643789 
L 166.917293 -210.199579 
L 165.518797 -210.755368 
L 164.120301 -211.311158 
L 162.721805 -211.866947 
L 161.323308 -212.422737 
L 159.924812 -212.978526 
L 158.526316 -213.534316 
L 157.12782 -214.090105 
L 155.729323 -214.645895 
L 154.330827 -215.201684 
L 152.932331 -215.757474 
L 151.533835 -216.313263 
L 150.135338 -216.869053 
L 148.736842 -217.424842 
L 147.338346 -217.980632 
L 145.93985 -218.536421 
L 144.541353 -219.092211 
L 143.142857 -219.648 
L 141.744361 -220.203789 
L 140.345865 -220.759579 
L 138.947368 -221.315368 
L 137.548872 -221.871158 
L 136.150376 -222.426947 
L 134.75188 -222.982737 
L 133.353383 -223.538526 
L 131.954887 -224.094316 
L 130.556391 -224.650105 
L 129.157895 -225.205895 
L 127.759398 -225.761684 
L 126.360902 -226.317474 
L 124.962406 -226.873263 
L 123.56391 -227.429053 
L 122.165414 -227.984842 
L 120.766917 -228.540632 
L 119.368421 -229.096421 
L 117.969925 -229.652211 
L 116.571429 -230.208 
L 115.172932 -230.763789 
L 113.774436 -231.319579 
L 112.37594 -231.875368 
L 110.977444 -232.431158 
L 109.578947 -232.986947 
L 108.180451 -233.542737 
L 106.781955 -234.098526 
L 105.383459 -234.654316 
L 103.984962 -235.210105 
L 102.586466 -235.765895 
L 101.18797 -236.321684 
L 99.789474 -236.877474 
L 98.390977 -237.433263 
L 96.992481 -237.989053 
L 95.593985 -238.544842 
L 94.195489 -239.100632 
L 92.796992 -239.656421 
L 91.398496 -240.212211 
L 90 -240.768 
z
" id="m0bad40764c" style="stroke:#808080;stroke-opacity:0.5;"/>
    </defs>
    <g clip-path="url(#p4d9e861fa2)">
     <use style="fill:#808080;fill-opacity:0.5;stroke:#808080;stroke-opacity:0.5;" x="0" xlink:href="#m0bad40764c" y="576"/>
    </g>
   </g>
   <g id="PolyCollection_2">
    <defs>
     <path d="M 201.879699 -196.082526 
L 201.879699 -63.36 
L 203.278195 -63.36 
L 204.676692 -63.36 
L 206.075188 -63.36 
L 207.473684 -63.36 
L 208.87218 -63.36 
L 210.270677 -63.36 
L 211.669173 -63.36 
L 213.067669 -63.36 
L 214.466165 -63.36 
L 215.864662 -63.36 
L 217.263158 -63.36 
L 218.661654 -63.36 
L 220.06015 -63.36 
L 221.458647 -63.36 
L 222.857143 -63.36 
L 224.255639 -63.36 
L 225.654135 -63.36 
L 227.052632 -63.36 
L 228.451128 -63.36 
L 229.849624 -63.36 
L 231.24812 -63.36 
L 232.646617 -63.36 
L 234.045113 -63.36 
L 235.443609 -63.36 
L 236.842105 -63.36 
L 238.240602 -63.36 
L 239.639098 -63.36 
L 241.037594 -63.36 
L 242.43609 -63.36 
L 243.834586 -63.36 
L 245.233083 -63.36 
L 246.631579 -63.36 
L 248.030075 -63.36 
L 249.428571 -63.36 
L 250.827068 -63.36 
L 252.225564 -63.36 
L 253.62406 -63.36 
L 255.022556 -63.36 
L 256.421053 -63.36 
L 257.819549 -63.36 
L 259.218045 -63.36 
L 260.616541 -63.36 
L 262.015038 -63.36 
L 263.413534 -63.36 
L 264.81203 -63.36 
L 266.210526 -63.36 
L 267.609023 -63.36 
L 269.007519 -63.36 
L 270.406015 -63.36 
L 271.804511 -63.36 
L 273.203008 -63.36 
L 274.601504 -63.36 
L 276 -63.36 
L 277.398496 -63.36 
L 278.796992 -63.36 
L 280.195489 -63.36 
L 281.593985 -63.36 
L 282.992481 -63.36 
L 284.390977 -63.36 
L 285.789474 -63.36 
L 287.18797 -63.36 
L 288.586466 -63.36 
L 289.984962 -63.36 
L 291.383459 -63.36 
L 292.781955 -63.36 
L 294.180451 -63.36 
L 295.578947 -63.36 
L 296.977444 -63.36 
L 298.37594 -63.36 
L 299.774436 -63.36 
L 301.172932 -63.36 
L 302.571429 -63.36 
L 303.969925 -63.36 
L 305.368421 -63.36 
L 306.766917 -63.36 
L 308.165414 -63.36 
L 309.56391 -63.36 
L 310.962406 -63.36 
L 312.360902 -63.36 
L 313.759398 -63.36 
L 315.157895 -63.36 
L 316.556391 -63.36 
L 317.954887 -63.36 
L 319.353383 -63.36 
L 320.75188 -63.36 
L 322.150376 -63.36 
L 323.548872 -63.36 
L 324.947368 -63.36 
L 326.345865 -63.36 
L 327.744361 -63.36 
L 329.142857 -63.36 
L 330.541353 -63.36 
L 331.93985 -63.36 
L 333.338346 -63.36 
L 334.736842 -63.36 
L 336.135338 -63.36 
L 337.533835 -63.36 
L 338.932331 -63.36 
L 340.330827 -63.36 
L 341.729323 -63.36 
L 343.12782 -63.36 
L 344.526316 -63.36 
L 345.924812 -63.36 
L 347.323308 -63.36 
L 348.721805 -63.36 
L 350.120301 -63.36 
L 351.518797 -63.36 
L 352.917293 -63.36 
L 354.315789 -63.36 
L 355.714286 -63.36 
L 357.112782 -63.36 
L 358.511278 -63.36 
L 359.909774 -63.36 
L 361.308271 -63.36 
L 362.706767 -63.36 
L 364.105263 -63.36 
L 365.503759 -63.36 
L 366.902256 -63.36 
L 368.300752 -63.36 
L 369.699248 -63.36 
L 371.097744 -63.36 
L 372.496241 -63.36 
L 373.894737 -63.36 
L 375.293233 -63.36 
L 376.691729 -63.36 
L 378.090226 -63.36 
L 379.488722 -63.36 
L 380.887218 -63.36 
L 382.285714 -63.36 
L 383.684211 -63.36 
L 385.082707 -63.36 
L 386.481203 -63.36 
L 387.879699 -63.36 
L 389.278195 -63.36 
L 390.676692 -63.36 
L 392.075188 -63.36 
L 393.473684 -63.36 
L 394.87218 -63.36 
L 396.270677 -63.36 
L 397.669173 -63.36 
L 399.067669 -63.36 
L 400.466165 -63.36 
L 401.864662 -63.36 
L 403.263158 -63.36 
L 404.661654 -63.36 
L 406.06015 -63.36 
L 407.458647 -63.36 
L 408.857143 -63.36 
L 410.255639 -63.36 
L 411.654135 -63.36 
L 413.052632 -63.36 
L 414.451128 -63.36 
L 415.849624 -63.36 
L 417.24812 -63.36 
L 418.646617 -63.36 
L 420.045113 -63.36 
L 421.443609 -63.36 
L 422.842105 -63.36 
L 424.240602 -63.36 
L 425.639098 -63.36 
L 427.037594 -63.36 
L 428.43609 -63.36 
L 429.834586 -63.36 
L 431.233083 -63.36 
L 432.631579 -63.36 
L 434.030075 -63.36 
L 435.428571 -63.36 
L 436.827068 -63.36 
L 438.225564 -63.36 
L 439.62406 -63.36 
L 441.022556 -63.36 
L 442.421053 -63.36 
L 443.819549 -63.36 
L 445.218045 -63.36 
L 446.616541 -63.36 
L 448.015038 -63.36 
L 449.413534 -63.36 
L 450.81203 -63.36 
L 452.210526 -63.36 
L 453.609023 -63.36 
L 455.007519 -63.36 
L 456.406015 -63.36 
L 457.804511 -63.36 
L 459.203008 -63.36 
L 460.601504 -63.36 
L 462 -63.36 
L 463.398496 -63.36 
L 464.796992 -63.36 
L 466.195489 -63.36 
L 467.593985 -63.36 
L 468.992481 -63.36 
L 470.390977 -63.36 
L 471.789474 -63.36 
L 473.18797 -63.36 
L 474.586466 -63.36 
L 475.984962 -63.36 
L 477.383459 -63.36 
L 478.781955 -63.36 
L 480.180451 -63.36 
L 481.578947 -63.36 
L 482.977444 -63.36 
L 484.37594 -63.36 
L 485.774436 -63.36 
L 487.172932 -63.36 
L 488.571429 -63.36 
L 489.969925 -63.36 
L 491.368421 -63.36 
L 492.766917 -63.36 
L 494.165414 -63.36 
L 495.56391 -63.36 
L 496.962406 -63.36 
L 498.360902 -63.36 
L 499.759398 -63.36 
L 501.157895 -63.36 
L 502.556391 -63.36 
L 503.954887 -63.36 
L 505.353383 -63.36 
L 506.75188 -63.36 
L 508.150376 -63.36 
L 509.548872 -63.36 
L 510.947368 -63.36 
L 512.345865 -63.36 
L 513.744361 -63.36 
L 515.142857 -63.36 
L 516.541353 -63.36 
L 517.93985 -63.36 
L 519.338346 -63.36 
L 520.736842 -63.36 
L 522.135338 -63.36 
L 523.533835 -63.36 
L 524.932331 -63.36 
L 526.330827 -63.36 
L 527.729323 -63.36 
L 529.12782 -63.36 
L 530.526316 -63.36 
L 531.924812 -63.36 
L 533.323308 -63.36 
L 534.721805 -63.36 
L 536.120301 -63.36 
L 537.518797 -63.36 
L 538.917293 -63.36 
L 540.315789 -63.36 
L 541.714286 -63.36 
L 543.112782 -63.36 
L 544.511278 -63.36 
L 545.909774 -63.36 
L 547.308271 -63.36 
L 548.706767 -63.36 
L 550.105263 -63.36 
L 551.503759 -63.36 
L 552.902256 -63.36 
L 554.300752 -63.36 
L 555.699248 -63.36 
L 557.097744 -63.36 
L 558.496241 -63.36 
L 559.894737 -63.36 
L 561.293233 -63.36 
L 562.691729 -63.36 
L 564.090226 -63.36 
L 565.488722 -63.36 
L 566.887218 -63.36 
L 568.285714 -63.36 
L 569.684211 -63.36 
L 571.082707 -63.36 
L 572.481203 -63.36 
L 573.879699 -63.36 
L 575.278195 -63.36 
L 576.676692 -63.36 
L 578.075188 -63.36 
L 579.473684 -63.36 
L 580.87218 -63.36 
L 582.270677 -63.36 
L 583.669173 -63.36 
L 585.067669 -63.36 
L 586.466165 -63.36 
L 587.864662 -63.36 
L 589.263158 -63.36 
L 590.661654 -63.36 
L 592.06015 -63.36 
L 593.458647 -63.36 
L 594.857143 -63.36 
L 596.255639 -63.36 
L 597.654135 -63.36 
L 599.052632 -63.36 
L 600.451128 -63.36 
L 601.849624 -63.36 
L 603.24812 -63.36 
L 604.646617 -63.36 
L 606.045113 -63.36 
L 607.443609 -63.36 
L 608.842105 -63.36 
L 610.240602 -63.36 
L 611.639098 -63.36 
L 613.037594 -63.36 
L 614.43609 -63.36 
L 615.834586 -63.36 
L 617.233083 -63.36 
L 618.631579 -63.36 
L 620.030075 -63.36 
L 621.428571 -63.36 
L 622.827068 -63.36 
L 624.225564 -63.36 
L 625.62406 -63.36 
L 627.022556 -63.36 
L 628.421053 -63.36 
L 629.819549 -63.36 
L 631.218045 -63.36 
L 632.616541 -63.36 
L 634.015038 -63.36 
L 635.413534 -63.36 
L 636.81203 -63.36 
L 638.210526 -63.36 
L 639.609023 -63.36 
L 641.007519 -63.36 
L 642.406015 -63.36 
L 643.804511 -63.36 
L 645.203008 -63.36 
L 646.601504 -63.36 
L 648 -63.36 
L 648 335.808 
L 648 335.808 
L 646.601504 334.140632 
L 645.203008 332.473263 
L 643.804511 330.805895 
L 642.406015 329.138526 
L 641.007519 327.471158 
L 639.609023 325.803789 
L 638.210526 324.136421 
L 636.81203 322.469053 
L 635.413534 320.801684 
L 634.015038 319.134316 
L 632.616541 317.466947 
L 631.218045 315.799579 
L 629.819549 314.132211 
L 628.421053 312.464842 
L 627.022556 310.797474 
L 625.62406 309.130105 
L 624.225564 307.462737 
L 622.827068 305.795368 
L 621.428571 304.128 
L 620.030075 302.460632 
L 618.631579 300.793263 
L 617.233083 299.125895 
L 615.834586 297.458526 
L 614.43609 295.791158 
L 613.037594 294.123789 
L 611.639098 292.456421 
L 610.240602 290.789053 
L 608.842105 289.121684 
L 607.443609 287.454316 
L 606.045113 285.786947 
L 604.646617 284.119579 
L 603.24812 282.452211 
L 601.849624 280.784842 
L 600.451128 279.117474 
L 599.052632 277.450105 
L 597.654135 275.782737 
L 596.255639 274.115368 
L 594.857143 272.448 
L 593.458647 270.780632 
L 592.06015 269.113263 
L 590.661654 267.445895 
L 589.263158 265.778526 
L 587.864662 264.111158 
L 586.466165 262.443789 
L 585.067669 260.776421 
L 583.669173 259.109053 
L 582.270677 257.441684 
L 580.87218 255.774316 
L 579.473684 254.106947 
L 578.075188 252.439579 
L 576.676692 250.772211 
L 575.278195 249.104842 
L 573.879699 247.437474 
L 572.481203 245.770105 
L 571.082707 244.102737 
L 569.684211 242.435368 
L 568.285714 240.768 
L 566.887218 239.100632 
L 565.488722 237.433263 
L 564.090226 235.765895 
L 562.691729 234.098526 
L 561.293233 232.431158 
L 559.894737 230.763789 
L 558.496241 229.096421 
L 557.097744 227.429053 
L 555.699248 225.761684 
L 554.300752 224.094316 
L 552.902256 222.426947 
L 551.503759 220.759579 
L 550.105263 219.092211 
L 548.706767 217.424842 
L 547.308271 215.757474 
L 545.909774 214.090105 
L 544.511278 212.422737 
L 543.112782 210.755368 
L 541.714286 209.088 
L 540.315789 207.420632 
L 538.917293 205.753263 
L 537.518797 204.085895 
L 536.120301 202.418526 
L 534.721805 200.751158 
L 533.323308 199.083789 
L 531.924812 197.416421 
L 530.526316 195.749053 
L 529.12782 194.081684 
L 527.729323 192.414316 
L 526.330827 190.746947 
L 524.932331 189.079579 
L 523.533835 187.412211 
L 522.135338 185.744842 
L 520.736842 184.077474 
L 519.338346 182.410105 
L 517.93985 180.742737 
L 516.541353 179.075368 
L 515.142857 177.408 
L 513.744361 175.740632 
L 512.345865 174.073263 
L 510.947368 172.405895 
L 509.548872 170.738526 
L 508.150376 169.071158 
L 506.75188 167.403789 
L 505.353383 165.736421 
L 503.954887 164.069053 
L 502.556391 162.401684 
L 501.157895 160.734316 
L 499.759398 159.066947 
L 498.360902 157.399579 
L 496.962406 155.732211 
L 495.56391 154.064842 
L 494.165414 152.397474 
L 492.766917 150.730105 
L 491.368421 149.062737 
L 489.969925 147.395368 
L 488.571429 145.728 
L 487.172932 144.060632 
L 485.774436 142.393263 
L 484.37594 140.725895 
L 482.977444 139.058526 
L 481.578947 137.391158 
L 480.180451 135.723789 
L 478.781955 134.056421 
L 477.383459 132.389053 
L 475.984962 130.721684 
L 474.586466 129.054316 
L 473.18797 127.386947 
L 471.789474 125.719579 
L 470.390977 124.052211 
L 468.992481 122.384842 
L 467.593985 120.717474 
L 466.195489 119.050105 
L 464.796992 117.382737 
L 463.398496 115.715368 
L 462 114.048 
L 460.601504 112.380632 
L 459.203008 110.713263 
L 457.804511 109.045895 
L 456.406015 107.378526 
L 455.007519 105.711158 
L 453.609023 104.043789 
L 452.210526 102.376421 
L 450.81203 100.709053 
L 449.413534 99.041684 
L 448.015038 97.374316 
L 446.616541 95.706947 
L 445.218045 94.039579 
L 443.819549 92.372211 
L 442.421053 90.704842 
L 441.022556 89.037474 
L 439.62406 87.370105 
L 438.225564 85.702737 
L 436.827068 84.035368 
L 435.428571 82.368 
L 434.030075 80.700632 
L 432.631579 79.033263 
L 431.233083 77.365895 
L 429.834586 75.698526 
L 428.43609 74.031158 
L 427.037594 72.363789 
L 425.639098 70.696421 
L 424.240602 69.029053 
L 422.842105 67.361684 
L 421.443609 65.694316 
L 420.045113 64.026947 
L 418.646617 62.359579 
L 417.24812 60.692211 
L 415.849624 59.024842 
L 414.451128 57.357474 
L 413.052632 55.690105 
L 411.654135 54.022737 
L 410.255639 52.355368 
L 408.857143 50.688 
L 407.458647 49.020632 
L 406.06015 47.353263 
L 404.661654 45.685895 
L 403.263158 44.018526 
L 401.864662 42.351158 
L 400.466165 40.683789 
L 399.067669 39.016421 
L 397.669173 37.349053 
L 396.270677 35.681684 
L 394.87218 34.014316 
L 393.473684 32.346947 
L 392.075188 30.679579 
L 390.676692 29.012211 
L 389.278195 27.344842 
L 387.879699 25.677474 
L 386.481203 24.010105 
L 385.082707 22.342737 
L 383.684211 20.675368 
L 382.285714 19.008 
L 380.887218 17.340632 
L 379.488722 15.673263 
L 378.090226 14.005895 
L 376.691729 12.338526 
L 375.293233 10.671158 
L 373.894737 9.003789 
L 372.496241 7.336421 
L 371.097744 5.669053 
L 369.699248 4.001684 
L 368.300752 2.334316 
L 366.902256 0.666947 
L 365.503759 -1.000421 
L 364.105263 -2.667789 
L 362.706767 -4.335158 
L 361.308271 -6.002526 
L 359.909774 -7.669895 
L 358.511278 -9.337263 
L 357.112782 -11.004632 
L 355.714286 -12.672 
L 354.315789 -14.339368 
L 352.917293 -16.006737 
L 351.518797 -17.674105 
L 350.120301 -19.341474 
L 348.721805 -21.008842 
L 347.323308 -22.676211 
L 345.924812 -24.343579 
L 344.526316 -26.010947 
L 343.12782 -27.678316 
L 341.729323 -29.345684 
L 340.330827 -31.013053 
L 338.932331 -32.680421 
L 337.533835 -34.347789 
L 336.135338 -36.015158 
L 334.736842 -37.682526 
L 333.338346 -39.349895 
L 331.93985 -41.017263 
L 330.541353 -42.684632 
L 329.142857 -44.352 
L 327.744361 -46.019368 
L 326.345865 -47.686737 
L 324.947368 -49.354105 
L 323.548872 -51.021474 
L 322.150376 -52.688842 
L 320.75188 -54.356211 
L 319.353383 -56.023579 
L 317.954887 -57.690947 
L 316.556391 -59.358316 
L 315.157895 -61.025684 
L 313.759398 -62.693053 
L 312.360902 -64.360421 
L 310.962406 -66.027789 
L 309.56391 -67.695158 
L 308.165414 -69.362526 
L 306.766917 -71.029895 
L 305.368421 -72.697263 
L 303.969925 -74.364632 
L 302.571429 -76.032 
L 301.172932 -77.699368 
L 299.774436 -79.366737 
L 298.37594 -81.034105 
L 296.977444 -82.701474 
L 295.578947 -84.368842 
L 294.180451 -86.036211 
L 292.781955 -87.703579 
L 291.383459 -89.370947 
L 289.984962 -91.038316 
L 288.586466 -92.705684 
L 287.18797 -94.373053 
L 285.789474 -96.040421 
L 284.390977 -97.707789 
L 282.992481 -99.375158 
L 281.593985 -101.042526 
L 280.195489 -102.709895 
L 278.796992 -104.377263 
L 277.398496 -106.044632 
L 276 -107.712 
L 274.601504 -109.379368 
L 273.203008 -111.046737 
L 271.804511 -112.714105 
L 270.406015 -114.381474 
L 269.007519 -116.048842 
L 267.609023 -117.716211 
L 266.210526 -119.383579 
L 264.81203 -121.050947 
L 263.413534 -122.718316 
L 262.015038 -124.385684 
L 260.616541 -126.053053 
L 259.218045 -127.720421 
L 257.819549 -129.387789 
L 256.421053 -131.055158 
L 255.022556 -132.722526 
L 253.62406 -134.389895 
L 252.225564 -136.057263 
L 250.827068 -137.724632 
L 249.428571 -139.392 
L 248.030075 -141.059368 
L 246.631579 -142.726737 
L 245.233083 -144.394105 
L 243.834586 -146.061474 
L 242.43609 -147.728842 
L 241.037594 -149.396211 
L 239.639098 -151.063579 
L 238.240602 -152.730947 
L 236.842105 -154.398316 
L 235.443609 -156.065684 
L 234.045113 -157.733053 
L 232.646617 -159.400421 
L 231.24812 -161.067789 
L 229.849624 -162.735158 
L 228.451128 -164.402526 
L 227.052632 -166.069895 
L 225.654135 -167.737263 
L 224.255639 -169.404632 
L 222.857143 -171.072 
L 221.458647 -172.739368 
L 220.06015 -174.406737 
L 218.661654 -176.074105 
L 217.263158 -177.741474 
L 215.864662 -179.408842 
L 214.466165 -181.076211 
L 213.067669 -182.743579 
L 211.669173 -184.410947 
L 210.270677 -186.078316 
L 208.87218 -187.745684 
L 207.473684 -189.413053 
L 206.075188 -191.080421 
L 204.676692 -192.747789 
L 203.278195 -194.415158 
L 201.879699 -196.082526 
z
" id="m72ab87f77c" style="stroke:#808080;stroke-opacity:0.5;"/>
    </defs>
    <g clip-path="url(#p4d9e861fa2)">
     <use style="fill:#808080;fill-opacity:0.5;stroke:#808080;stroke-opacity:0.5;" x="0" xlink:href="#m72ab87f77c" y="576"/>
    </g>
   </g>
   <g id="matplotlib.axis_1">
    <g id="xtick_1">
     <g id="line2d_1">
      <path clip-path="url(#p4d9e861fa2)" d="M 90 512.64 
L 90 69.12 
" style="fill:none;stroke:#b0b0b0;stroke-dasharray:2.22,0.96;stroke-dashoffset:0;stroke-opacity:0.7;stroke-width:0.6;"/>
     </g>
     <g id="line2d_2">
      <defs>
       <path d="M 0 0 
L 0 -3.5 
" id="m4829fe24ad" style="stroke:#1a1a1a;stroke-width:0.8;"/>
      </defs>
      <g>
       <use style="fill:#1a1a1a;stroke:#1a1a1a;stroke-width:0.8;" x="90" xlink:href="#m4829fe24ad" y="512.64"/>
      </g>
     </g>
     <g id="text_1">
      <!-- 0 -->
      <g style="fill:#1a1a1a;" transform="translate(86.1825 525.258125)scale(0.12 -0.12)">
       <defs>
        <path d="M 2034 4250 
Q 1547 4250 1301 3770 
Q 1056 3291 1056 2328 
Q 1056 1369 1301 889 
Q 1547 409 2034 409 
Q 2525 409 2770 889 
Q 3016 1369 3016 2328 
Q 3016 3291 2770 3770 
Q 2525 4250 2034 4250 
z
M 2034 4750 
Q 2819 4750 3233 4129 
Q 3647 3509 3647 2328 
Q 3647 1150 3233 529 
Q 2819 -91 2034 -91 
Q 1250 -91 836 529 
Q 422 1150 422 2328 
Q 422 3509 836 4129 
Q 1250 4750 2034 4750 
z
" id="DejaVuSans-30" transform="scale(0.015625)"/>
       </defs>
       <use xlink:href="#DejaVuSans-30"/>
      </g>
     </g>
    </g>
    <g id="xtick_2">
     <g id="line2d_3">
      <path clip-path="url(#p4d9e861fa2)" d="M 201.6 512.64 
L 201.6 69.12 
" style="fill:none;stroke:#b0b0b0;stroke-dasharray:2.22,0.96;stroke-dashoffset:0;stroke-opacity:0.7;stroke-width:0.6;"/>
     </g>
     <g id="line2d_4">
      <g>
       <use style="fill:#1a1a1a;stroke:#1a1a1a;stroke-width:0.8;" x="201.6" xlink:href="#m4829fe24ad" y="512.64"/>
      </g>
     </g>
     <g id="text_2">
      <!-- 2 -->
      <g style="fill:#1a1a1a;" transform="translate(197.7825 525.258125)scale(0.12 -0.12)">
       <defs>
        <path d="M 1228 531 
L 3431 531 
L 3431 0 
L 469 0 
L 469 531 
Q 828 903 1448 1529 
Q 2069 2156 2228 2338 
Q 2531 2678 2651 2914 
Q 2772 3150 2772 3378 
Q 2772 3750 2511 3984 
Q 2250 4219 1831 4219 
Q 1534 4219 1204 4116 
Q 875 4013 500 3803 
L 500 4441 
Q 881 4594 1212 4672 
Q 1544 4750 1819 4750 
Q 2544 4750 2975 4387 
Q 3406 4025 3406 3419 
Q 3406 3131 3298 2873 
Q 3191 2616 2906 2266 
Q 2828 2175 2409 1742 
Q 1991 1309 1228 531 
z
" id="DejaVuSans-32" transform="scale(0.015625)"/>
       </defs>
       <use xlink:href="#DejaVuSans-32"/>
      </g>
     </g>
    </g>
    <g id="xtick_3">
     <g id="line2d_5">
      <path clip-path="url(#p4d9e861fa2)" d="M 313.2 512.64 
L 313.2 69.12 
" style="fill:none;stroke:#b0b0b0;stroke-dasharray:2.22,0.96;stroke-dashoffset:0;stroke-opacity:0.7;stroke-width:0.6;"/>
     </g>
     <g id="line2d_6">
      <g>
       <use style="fill:#1a1a1a;stroke:#1a1a1a;stroke-width:0.8;" x="313.2" xlink:href="#m4829fe24ad" y="512.64"/>
      </g>
     </g>
     <g id="text_3">
      <!-- 4 -->
      <g style="fill:#1a1a1a;" transform="translate(309.3825 525.258125)scale(0.12 -0.12)">
       <defs>
        <path d="M 2419 4116 
L 825 1625 
L 2419 1625 
L 2419 4116 
z
M 2253 4666 
L 3047 4666 
L 3047 1625 
L 3713 1625 
L 3713 1100 
L 3047 1100 
L 3047 0 
L 2419 0 
L 2419 1100 
L 313 1100 
L 313 1709 
L 2253 4666 
z
" id="DejaVuSans-34" transform="scale(0.015625)"/>
       </defs>
       <use xlink:href="#DejaVuSans-34"/>
      </g>
     </g>
    </g>
    <g id="xtick_4">
     <g id="line2d_7">
      <path clip-path="url(#p4d9e861fa2)" d="M 424.8 512.64 
L 424.8 69.12 
" style="fill:none;stroke:#b0b0b0;stroke-dasharray:2.22,0.96;stroke-dashoffset:0;stroke-opacity:0.7;stroke-width:0.6;"/>
     </g>
     <g id="line2d_8">
      <g>
       <use style="fill:#1a1a1a;stroke:#1a1a1a;stroke-width:0.8;" x="424.8" xlink:href="#m4829fe24ad" y="512.64"/>
      </g>
     </g>
     <g id="text_4">
      <!-- 6 -->
      <g style="fill:#1a1a1a;" transform="translate(420.9825 525.258125)scale(0.12 -0.12)">
       <defs>
        <path d="M 2113 2584 
Q 1688 2584 1439 2293 
Q 1191 2003 1191 1497 
Q 1191 994 1439 701 
Q 1688 409 2113 409 
Q 2538 409 2786 701 
Q 3034 994 3034 1497 
Q 3034 2003 2786 2293 
Q 2538 2584 2113 2584 
z
M 3366 4563 
L 3366 3988 
Q 3128 4100 2886 4159 
Q 2644 4219 2406 4219 
Q 1781 4219 1451 3797 
Q 1122 3375 1075 2522 
Q 1259 2794 1537 2939 
Q 1816 3084 2150 3084 
Q 2853 3084 3261 2657 
Q 3669 2231 3669 1497 
Q 3669 778 3244 343 
Q 2819 -91 2113 -91 
Q 1303 -91 875 529 
Q 447 1150 447 2328 
Q 447 3434 972 4092 
Q 1497 4750 2381 4750 
Q 2619 4750 2861 4703 
Q 3103 4656 3366 4563 
z
" id="DejaVuSans-36" transform="scale(0.015625)"/>
       </defs>
       <use xlink:href="#DejaVuSans-36"/>
      </g>
     </g>
    </g>
    <g id="xtick_5">
     <g id="line2d_9">
      <path clip-path="url(#p4d9e861fa2)" d="M 536.4 512.64 
L 536.4 69.12 
" style="fill:none;stroke:#b0b0b0;stroke-dasharray:2.22,0.96;stroke-dashoffset:0;stroke-opacity:0.7;stroke-width:0.6;"/>
     </g>
     <g id="line2d_10">
      <g>
       <use style="fill:#1a1a1a;stroke:#1a1a1a;stroke-width:0.8;" x="536.4" xlink:href="#m4829fe24ad" y="512.64"/>
      </g>
     </g>
     <g id="text_5">
      <!-- 8 -->
      <g style="fill:#1a1a1a;" transform="translate(532.5825 525.258125)scale(0.12 -0.12)">
       <defs>
        <path d="M 2034 2216 
Q 1584 2216 1326 1975 
Q 1069 1734 1069 1313 
Q 1069 891 1326 650 
Q 1584 409 2034 409 
Q 2484 409 2743 651 
Q 3003 894 3003 1313 
Q 3003 1734 2745 1975 
Q 2488 2216 2034 2216 
z
M 1403 2484 
Q 997 2584 770 2862 
Q 544 3141 544 3541 
Q 544 4100 942 4425 
Q 1341 4750 2034 4750 
Q 2731 4750 3128 4425 
Q 3525 4100 3525 3541 
Q 3525 3141 3298 2862 
Q 3072 2584 2669 2484 
Q 3125 2378 3379 2068 
Q 3634 1759 3634 1313 
Q 3634 634 3220 271 
Q 2806 -91 2034 -91 
Q 1263 -91 848 271 
Q 434 634 434 1313 
Q 434 1759 690 2068 
Q 947 2378 1403 2484 
z
M 1172 3481 
Q 1172 3119 1398 2916 
Q 1625 2713 2034 2713 
Q 2441 2713 2670 2916 
Q 2900 3119 2900 3481 
Q 2900 3844 2670 4047 
Q 2441 4250 2034 4250 
Q 1625 4250 1398 4047 
Q 1172 3844 1172 3481 
z
" id="DejaVuSans-38" transform="scale(0.015625)"/>
       </defs>
       <use xlink:href="#DejaVuSans-38"/>
      </g>
     </g>
    </g>
    <g id="xtick_6">
     <g id="line2d_11">
      <path clip-path="url(#p4d9e861fa2)" d="M 648 512.64 
L 648 69.12 
" style="fill:none;stroke:#b0b0b0;stroke-dasharray:2.22,0.96;stroke-dashoffset:0;stroke-opacity:0.7;stroke-width:0.6;"/>
     </g>
     <g id="line2d_12">
      <g>
       <use style="fill:#1a1a1a;stroke:#1a1a1a;stroke-width:0.8;" x="648" xlink:href="#m4829fe24ad" y="512.64"/>
      </g>
     </g>
     <g id="text_6">
      <!-- 10 -->
      <g style="fill:#1a1a1a;" transform="translate(640.365 525.258125)scale(0.12 -0.12)">
       <defs>
        <path d="M 794 531 
L 1825 531 
L 1825 4091 
L 703 3866 
L 703 4441 
L 1819 4666 
L 2450 4666 
L 2450 531 
L 3481 531 
L 3481 0 
L 794 0 
L 794 531 
z
" id="DejaVuSans-31" transform="scale(0.015625)"/>
       </defs>
       <use xlink:href="#DejaVuSans-31"/>
       <use x="63.623047" xlink:href="#DejaVuSans-30"/>
      </g>
     </g>
    </g>
    <g id="text_7">
     <!-- $x$ -->
     <g style="fill:#1a1a1a;" transform="translate(365.4 540.871875)scale(0.12 -0.12)">
      <defs>
       <path d="M 3841 3500 
L 2234 1784 
L 3219 0 
L 2559 0 
L 1819 1388 
L 531 0 
L -166 0 
L 1556 1844 
L 641 3500 
L 1300 3500 
L 1972 2234 
L 3144 3500 
L 3841 3500 
z
" id="DejaVuSans-Oblique-78" transform="scale(0.015625)"/>
      </defs>
      <use transform="translate(0 0.3125)" xlink:href="#DejaVuSans-Oblique-78"/>
     </g>
    </g>
   </g>
   <g id="matplotlib.axis_2">
    <g id="ytick_1">
     <g id="line2d_13">
      <path clip-path="url(#p4d9e861fa2)" d="M 90 512.64 
L 648 512.64 
" style="fill:none;stroke:#b0b0b0;stroke-dasharray:2.22,0.96;stroke-dashoffset:0;stroke-opacity:0.7;stroke-width:0.6;"/>
     </g>
     <g id="line2d_14">
      <defs>
       <path d="M 0 0 
L 3.5 0 
" id="mb0a93b497e" style="stroke:#1a1a1a;stroke-width:0.8;"/>
      </defs>
      <g>
       <use style="fill:#1a1a1a;stroke:#1a1a1a;stroke-width:0.8;" x="90" xlink:href="#mb0a93b497e" y="512.64"/>
      </g>
     </g>
     <g id="text_8">
      <!-- 0 -->
      <g style="fill:#1a1a1a;" transform="translate(78.865 517.199062)scale(0.12 -0.12)">
       <use xlink:href="#DejaVuSans-30"/>
      </g>
     </g>
    </g>
    <g id="ytick_2">
     <g id="line2d_15">
      <path clip-path="url(#p4d9e861fa2)" d="M 90 423.936 
L 648 423.936 
" style="fill:none;stroke:#b0b0b0;stroke-dasharray:2.22,0.96;stroke-dashoffset:0;stroke-opacity:0.7;stroke-width:0.6;"/>
     </g>
     <g id="line2d_16">
      <g>
       <use style="fill:#1a1a1a;stroke:#1a1a1a;stroke-width:0.8;" x="90" xlink:href="#mb0a93b497e" y="423.936"/>
      </g>
     </g>
     <g id="text_9">
      <!-- 2 -->
      <g style="fill:#1a1a1a;" transform="translate(78.865 428.495063)scale(0.12 -0.12)">
       <use xlink:href="#DejaVuSans-32"/>
      </g>
     </g>
    </g>
    <g id="ytick_3">
     <g id="line2d_17">
      <path clip-path="url(#p4d9e861fa2)" d="M 90 335.232 
L 648 335.232 
" style="fill:none;stroke:#b0b0b0;stroke-dasharray:2.22,0.96;stroke-dashoffset:0;stroke-opacity:0.7;stroke-width:0.6;"/>
     </g>
     <g id="line2d_18">
      <g>
       <use style="fill:#1a1a1a;stroke:#1a1a1a;stroke-width:0.8;" x="90" xlink:href="#mb0a93b497e" y="335.232"/>
      </g>
     </g>
     <g id="text_10">
      <!-- 4 -->
      <g style="fill:#1a1a1a;" transform="translate(78.865 339.791063)scale(0.12 -0.12)">
       <use xlink:href="#DejaVuSans-34"/>
      </g>
     </g>
    </g>
    <g id="ytick_4">
     <g id="line2d_19">
      <path clip-path="url(#p4d9e861fa2)" d="M 90 246.528 
L 648 246.528 
" style="fill:none;stroke:#b0b0b0;stroke-dasharray:2.22,0.96;stroke-dashoffset:0;stroke-opacity:0.7;stroke-width:0.6;"/>
     </g>
     <g id="line2d_20">
      <g>
       <use style="fill:#1a1a1a;stroke:#1a1a1a;stroke-width:0.8;" x="90" xlink:href="#mb0a93b497e" y="246.528"/>
      </g>
     </g>
     <g id="text_11">
      <!-- 6 -->
      <g style="fill:#1a1a1a;" transform="translate(78.865 251.087062)scale(0.12 -0.12)">
       <use xlink:href="#DejaVuSans-36"/>
      </g>
     </g>
    </g>
    <g id="ytick_5">
     <g id="line2d_21">
      <path clip-path="url(#p4d9e861fa2)" d="M 90 157.824 
L 648 157.824 
" style="fill:none;stroke:#b0b0b0;stroke-dasharray:2.22,0.96;stroke-dashoffset:0;stroke-opacity:0.7;stroke-width:0.6;"/>
     </g>
     <g id="line2d_22">
      <g>
       <use style="fill:#1a1a1a;stroke:#1a1a1a;stroke-width:0.8;" x="90" xlink:href="#mb0a93b497e" y="157.824"/>
      </g>
     </g>
     <g id="text_12">
      <!-- 8 -->
      <g style="fill:#1a1a1a;" transform="translate(78.865 162.383062)scale(0.12 -0.12)">
       <use xlink:href="#DejaVuSans-38"/>
      </g>
     </g>
    </g>
    <g id="ytick_6">
     <g id="line2d_23">
      <path clip-path="url(#p4d9e861fa2)" d="M 90 69.12 
L 648 69.12 
" style="fill:none;stroke:#b0b0b0;stroke-dasharray:2.22,0.96;stroke-dashoffset:0;stroke-opacity:0.7;stroke-width:0.6;"/>
     </g>
     <g id="line2d_24">
      <g>
       <use style="fill:#1a1a1a;stroke:#1a1a1a;stroke-width:0.8;" x="90" xlink:href="#mb0a93b497e" y="69.12"/>
      </g>
     </g>
     <g id="text_13">
      <!-- 10 -->
      <g style="fill:#1a1a1a;" transform="translate(71.23 73.679062)scale(0.12 -0.12)">
       <use xlink:href="#DejaVuSans-31"/>
       <use x="63.623047" xlink:href="#DejaVuSans-30"/>
      </g>
     </g>
    </g>
    <g id="text_14">
     <!-- $y$ -->
     <g style="fill:#1a1a1a;" transform="translate(64.71 294.48)rotate(-90)scale(0.12 -0.12)">
      <defs>
       <path d="M 1588 -325 
Q 1188 -997 936 -1164 
Q 684 -1331 294 -1331 
L -159 -1331 
L -63 -850 
L 269 -850 
Q 509 -850 678 -719 
Q 847 -588 1056 -206 
L 1234 128 
L 459 3500 
L 1069 3500 
L 1650 819 
L 3256 3500 
L 3859 3500 
L 1588 -325 
z
" id="DejaVuSans-Oblique-79" transform="scale(0.015625)"/>
      </defs>
      <use transform="translate(0 0.3125)" xlink:href="#DejaVuSans-Oblique-79"/>
     </g>
    </g>
   </g>
   <g id="line2d_25">
    <path clip-path="url(#p4d9e861fa2)" d="M 90 335.232 
L 648 556.992 
L 648 556.992 
" style="fill:none;stroke:#10a37f;stroke-linecap:square;stroke-width:1.5;"/>
   </g>
   <g id="line2d_26">
    <path clip-path="url(#p4d9e861fa2)" d="M 90 246.528 
L 367.181602 577 
L 367.181602 577 
" style="fill:none;stroke:#147960;stroke-linecap:square;stroke-width:1.5;"/>
   </g>
   <g id="line2d_27">
    <path clip-path="url(#p4d9e861fa2)" d="M 90 379.584 
L 421.163203 577 
L 421.163203 577 
" style="fill:none;stroke:#024736;stroke-dasharray:7.4,3.2;stroke-dashoffset:0;stroke-width:2;"/>
   </g>
   <g id="line2d_28">
    <path clip-path="url(#p4d9e861fa2)" d="M 90 512.64 
L 648 512.64 
" style="fill:none;stroke:#000000;stroke-linecap:square;stroke-width:0.5;"/>
   </g>
   <g id="line2d_29">
    <path clip-path="url(#p4d9e861fa2)" d="M 90 512.64 
L 90 69.12 
" style="fill:none;stroke:#000000;stroke-linecap:square;stroke-width:0.5;"/>
   </g>
   <g id="patch_3">
    <path d="M 90 512.64 
L 90 69.12 
" style="fill:none;stroke:#1a1a1a;stroke-linecap:square;stroke-linejoin:miter;"/>
   </g>
   <g id="patch_4">
    <path d="M 90 512.64 
L 648 512.64 
" style="fill:none;stroke:#1a1a1a;stroke-linecap:square;stroke-linejoin:miter;"/>
   </g>
   <g id="text_15">
    <!-- Graphical Solution of Linear Programming Problem -->
    <g style="fill:#333333;" transform="translate(166.22 63.12)scale(0.16 -0.16)">
     <defs>
      <path d="M 3809 666 
L 3809 1919 
L 2778 1919 
L 2778 2438 
L 4434 2438 
L 4434 434 
Q 4069 175 3628 42 
Q 3188 -91 2688 -91 
Q 1594 -91 976 548 
Q 359 1188 359 2328 
Q 359 3472 976 4111 
Q 1594 4750 2688 4750 
Q 3144 4750 3555 4637 
Q 3966 4525 4313 4306 
L 4313 3634 
Q 3963 3931 3569 4081 
Q 3175 4231 2741 4231 
Q 1884 4231 1454 3753 
Q 1025 3275 1025 2328 
Q 1025 1384 1454 906 
Q 1884 428 2741 428 
Q 3075 428 3337 486 
Q 3600 544 3809 666 
z
" id="DejaVuSans-47" transform="scale(0.015625)"/>
      <path d="M 2631 2963 
Q 2534 3019 2420 3045 
Q 2306 3072 2169 3072 
Q 1681 3072 1420 2755 
Q 1159 2438 1159 1844 
L 1159 0 
L 581 0 
L 581 3500 
L 1159 3500 
L 1159 2956 
Q 1341 3275 1631 3429 
Q 1922 3584 2338 3584 
Q 2397 3584 2469 3576 
Q 2541 3569 2628 3553 
L 2631 2963 
z
" id="DejaVuSans-72" transform="scale(0.015625)"/>
      <path d="M 2194 1759 
Q 1497 1759 1228 1600 
Q 959 1441 959 1056 
Q 959 750 1161 570 
Q 1363 391 1709 391 
Q 2188 391 2477 730 
Q 2766 1069 2766 1631 
L 2766 1759 
L 2194 1759 
z
M 3341 1997 
L 3341 0 
L 2766 0 
L 2766 531 
Q 2569 213 2275 61 
Q 1981 -91 1556 -91 
Q 1019 -91 701 211 
Q 384 513 384 1019 
Q 384 1609 779 1909 
Q 1175 2209 1959 2209 
L 2766 2209 
L 2766 2266 
Q 2766 2663 2505 2880 
Q 2244 3097 1772 3097 
Q 1472 3097 1187 3025 
Q 903 2953 641 2809 
L 641 3341 
Q 956 3463 1253 3523 
Q 1550 3584 1831 3584 
Q 2591 3584 2966 3190 
Q 3341 2797 3341 1997 
z
" id="DejaVuSans-61" transform="scale(0.015625)"/>
      <path d="M 1159 525 
L 1159 -1331 
L 581 -1331 
L 581 3500 
L 1159 3500 
L 1159 2969 
Q 1341 3281 1617 3432 
Q 1894 3584 2278 3584 
Q 2916 3584 3314 3078 
Q 3713 2572 3713 1747 
Q 3713 922 3314 415 
Q 2916 -91 2278 -91 
Q 1894 -91 1617 61 
Q 1341 213 1159 525 
z
M 3116 1747 
Q 3116 2381 2855 2742 
Q 2594 3103 2138 3103 
Q 1681 3103 1420 2742 
Q 1159 2381 1159 1747 
Q 1159 1113 1420 752 
Q 1681 391 2138 391 
Q 2594 391 2855 752 
Q 3116 1113 3116 1747 
z
" id="DejaVuSans-70" transform="scale(0.015625)"/>
      <path d="M 3513 2113 
L 3513 0 
L 2938 0 
L 2938 2094 
Q 2938 2591 2744 2837 
Q 2550 3084 2163 3084 
Q 1697 3084 1428 2787 
Q 1159 2491 1159 1978 
L 1159 0 
L 581 0 
L 581 4863 
L 1159 4863 
L 1159 2956 
Q 1366 3272 1645 3428 
Q 1925 3584 2291 3584 
Q 2894 3584 3203 3211 
Q 3513 2838 3513 2113 
z
" id="DejaVuSans-68" transform="scale(0.015625)"/>
      <path d="M 603 3500 
L 1178 3500 
L 1178 0 
L 603 0 
L 603 3500 
z
M 603 4863 
L 1178 4863 
L 1178 4134 
L 603 4134 
L 603 4863 
z
" id="DejaVuSans-69" transform="scale(0.015625)"/>
      <path d="M 3122 3366 
L 3122 2828 
Q 2878 2963 2633 3030 
Q 2388 3097 2138 3097 
Q 1578 3097 1268 2742 
Q 959 2388 959 1747 
Q 959 1106 1268 751 
Q 1578 397 2138 397 
Q 2388 397 2633 464 
Q 2878 531 3122 666 
L 3122 134 
Q 2881 22 2623 -34 
Q 2366 -91 2075 -91 
Q 1284 -91 818 406 
Q 353 903 353 1747 
Q 353 2603 823 3093 
Q 1294 3584 2113 3584 
Q 2378 3584 2631 3529 
Q 2884 3475 3122 3366 
z
" id="DejaVuSans-63" transform="scale(0.015625)"/>
      <path d="M 603 4863 
L 1178 4863 
L 1178 0 
L 603 0 
L 603 4863 
z
" id="DejaVuSans-6c" transform="scale(0.015625)"/>
      <path id="DejaVuSans-20" transform="scale(0.015625)"/>
      <path d="M 3425 4513 
L 3425 3897 
Q 3066 4069 2747 4153 
Q 2428 4238 2131 4238 
Q 1616 4238 1336 4038 
Q 1056 3838 1056 3469 
Q 1056 3159 1242 3001 
Q 1428 2844 1947 2747 
L 2328 2669 
Q 3034 2534 3370 2195 
Q 3706 1856 3706 1288 
Q 3706 609 3251 259 
Q 2797 -91 1919 -91 
Q 1588 -91 1214 -16 
Q 841 59 441 206 
L 441 856 
Q 825 641 1194 531 
Q 1563 422 1919 422 
Q 2459 422 2753 634 
Q 3047 847 3047 1241 
Q 3047 1584 2836 1778 
Q 2625 1972 2144 2069 
L 1759 2144 
Q 1053 2284 737 2584 
Q 422 2884 422 3419 
Q 422 4038 858 4394 
Q 1294 4750 2059 4750 
Q 2388 4750 2728 4690 
Q 3069 4631 3425 4513 
z
" id="DejaVuSans-53" transform="scale(0.015625)"/>
      <path d="M 1959 3097 
Q 1497 3097 1228 2736 
Q 959 2375 959 1747 
Q 959 1119 1226 758 
Q 1494 397 1959 397 
Q 2419 397 2687 759 
Q 2956 1122 2956 1747 
Q 2956 2369 2687 2733 
Q 2419 3097 1959 3097 
z
M 1959 3584 
Q 2709 3584 3137 3096 
Q 3566 2609 3566 1747 
Q 3566 888 3137 398 
Q 2709 -91 1959 -91 
Q 1206 -91 779 398 
Q 353 888 353 1747 
Q 353 2609 779 3096 
Q 1206 3584 1959 3584 
z
" id="DejaVuSans-6f" transform="scale(0.015625)"/>
      <path d="M 544 1381 
L 544 3500 
L 1119 3500 
L 1119 1403 
Q 1119 906 1312 657 
Q 1506 409 1894 409 
Q 2359 409 2629 706 
Q 2900 1003 2900 1516 
L 2900 3500 
L 3475 3500 
L 3475 0 
L 2900 0 
L 2900 538 
Q 2691 219 2414 64 
Q 2138 -91 1772 -91 
Q 1169 -91 856 284 
Q 544 659 544 1381 
z
M 1991 3584 
L 1991 3584 
z
" id="DejaVuSans-75" transform="scale(0.015625)"/>
      <path d="M 1172 4494 
L 1172 3500 
L 2356 3500 
L 2356 3053 
L 1172 3053 
L 1172 1153 
Q 1172 725 1289 603 
Q 1406 481 1766 481 
L 2356 481 
L 2356 0 
L 1766 0 
Q 1100 0 847 248 
Q 594 497 594 1153 
L 594 3053 
L 172 3053 
L 172 3500 
L 594 3500 
L 594 4494 
L 1172 4494 
z
" id="DejaVuSans-74" transform="scale(0.015625)"/>
      <path d="M 3513 2113 
L 3513 0 
L 2938 0 
L 2938 2094 
Q 2938 2591 2744 2837 
Q 2550 3084 2163 3084 
Q 1697 3084 1428 2787 
Q 1159 2491 1159 1978 
L 1159 0 
L 581 0 
L 581 3500 
L 1159 3500 
L 1159 2956 
Q 1366 3272 1645 3428 
Q 1925 3584 2291 3584 
Q 2894 3584 3203 3211 
Q 3513 2838 3513 2113 
z
" id="DejaVuSans-6e" transform="scale(0.015625)"/>
      <path d="M 2375 4863 
L 2375 4384 
L 1825 4384 
Q 1516 4384 1395 4259 
Q 1275 4134 1275 3809 
L 1275 3500 
L 2222 3500 
L 2222 3053 
L 1275 3053 
L 1275 0 
L 697 0 
L 697 3053 
L 147 3053 
L 147 3500 
L 697 3500 
L 697 3744 
Q 697 4328 969 4595 
Q 1241 4863 1831 4863 
L 2375 4863 
z
" id="DejaVuSans-66" transform="scale(0.015625)"/>
      <path d="M 628 4666 
L 1259 4666 
L 1259 531 
L 3531 531 
L 3531 0 
L 628 0 
L 628 4666 
z
" id="DejaVuSans-4c" transform="scale(0.015625)"/>
      <path d="M 3597 1894 
L 3597 1613 
L 953 1613 
Q 991 1019 1311 708 
Q 1631 397 2203 397 
Q 2534 397 2845 478 
Q 3156 559 3463 722 
L 3463 178 
Q 3153 47 2828 -22 
Q 2503 -91 2169 -91 
Q 1331 -91 842 396 
Q 353 884 353 1716 
Q 353 2575 817 3079 
Q 1281 3584 2069 3584 
Q 2775 3584 3186 3129 
Q 3597 2675 3597 1894 
z
M 3022 2063 
Q 3016 2534 2758 2815 
Q 2500 3097 2075 3097 
Q 1594 3097 1305 2825 
Q 1016 2553 972 2059 
L 3022 2063 
z
" id="DejaVuSans-65" transform="scale(0.015625)"/>
      <path d="M 1259 4147 
L 1259 2394 
L 2053 2394 
Q 2494 2394 2734 2622 
Q 2975 2850 2975 3272 
Q 2975 3691 2734 3919 
Q 2494 4147 2053 4147 
L 1259 4147 
z
M 628 4666 
L 2053 4666 
Q 2838 4666 3239 4311 
Q 3641 3956 3641 3272 
Q 3641 2581 3239 2228 
Q 2838 1875 2053 1875 
L 1259 1875 
L 1259 0 
L 628 0 
L 628 4666 
z
" id="DejaVuSans-50" transform="scale(0.015625)"/>
      <path d="M 2906 1791 
Q 2906 2416 2648 2759 
Q 2391 3103 1925 3103 
Q 1463 3103 1205 2759 
Q 947 2416 947 1791 
Q 947 1169 1205 825 
Q 1463 481 1925 481 
Q 2391 481 2648 825 
Q 2906 1169 2906 1791 
z
M 3481 434 
Q 3481 -459 3084 -895 
Q 2688 -1331 1869 -1331 
Q 1566 -1331 1297 -1286 
Q 1028 -1241 775 -1147 
L 775 -588 
Q 1028 -725 1275 -790 
Q 1522 -856 1778 -856 
Q 2344 -856 2625 -561 
Q 2906 -266 2906 331 
L 2906 616 
Q 2728 306 2450 153 
Q 2172 0 1784 0 
Q 1141 0 747 490 
Q 353 981 353 1791 
Q 353 2603 747 3093 
Q 1141 3584 1784 3584 
Q 2172 3584 2450 3431 
Q 2728 3278 2906 2969 
L 2906 3500 
L 3481 3500 
L 3481 434 
z
" id="DejaVuSans-67" transform="scale(0.015625)"/>
      <path d="M 3328 2828 
Q 3544 3216 3844 3400 
Q 4144 3584 4550 3584 
Q 5097 3584 5394 3201 
Q 5691 2819 5691 2113 
L 5691 0 
L 5113 0 
L 5113 2094 
Q 5113 2597 4934 2840 
Q 4756 3084 4391 3084 
Q 3944 3084 3684 2787 
Q 3425 2491 3425 1978 
L 3425 0 
L 2847 0 
L 2847 2094 
Q 2847 2600 2669 2842 
Q 2491 3084 2119 3084 
Q 1678 3084 1418 2786 
Q 1159 2488 1159 1978 
L 1159 0 
L 581 0 
L 581 3500 
L 1159 3500 
L 1159 2956 
Q 1356 3278 1631 3431 
Q 1906 3584 2284 3584 
Q 2666 3584 2933 3390 
Q 3200 3197 3328 2828 
z
" id="DejaVuSans-6d" transform="scale(0.015625)"/>
      <path d="M 3116 1747 
Q 3116 2381 2855 2742 
Q 2594 3103 2138 3103 
Q 1681 3103 1420 2742 
Q 1159 2381 1159 1747 
Q 1159 1113 1420 752 
Q 1681 391 2138 391 
Q 2594 391 2855 752 
Q 3116 1113 3116 1747 
z
M 1159 2969 
Q 1341 3281 1617 3432 
Q 1894 3584 2278 3584 
Q 2916 3584 3314 3078 
Q 3713 2572 3713 1747 
Q 3713 922 3314 415 
Q 2916 -91 2278 -91 
Q 1894 -91 1617 61 
Q 1341 213 1159 525 
L 1159 0 
L 581 0 
L 581 4863 
L 1159 4863 
L 1159 2969 
z
" id="DejaVuSans-62" transform="scale(0.015625)"/>
     </defs>
     <use xlink:href="#DejaVuSans-47"/>
     <use x="77.490234" xlink:href="#DejaVuSans-72"/>
     <use x="118.603516" xlink:href="#DejaVuSans-61"/>
     <use x="179.882812" xlink:href="#DejaVuSans-70"/>
     <use x="243.359375" xlink:href="#DejaVuSans-68"/>
     <use x="306.738281" xlink:href="#DejaVuSans-69"/>
     <use x="334.521484" xlink:href="#DejaVuSans-63"/>
     <use x="389.501953" xlink:href="#DejaVuSans-61"/>
     <use x="450.78125" xlink:href="#DejaVuSans-6c"/>
     <use x="478.564453" xlink:href="#DejaVuSans-20"/>
     <use x="510.351562" xlink:href="#DejaVuSans-53"/>
     <use x="573.828125" xlink:href="#DejaVuSans-6f"/>
     <use x="635.009766" xlink:href="#DejaVuSans-6c"/>
     <use x="662.792969" xlink:href="#DejaVuSans-75"/>
     <use x="726.171875" xlink:href="#DejaVuSans-74"/>
     <use x="765.380859" xlink:href="#DejaVuSans-69"/>
     <use x="793.164062" xlink:href="#DejaVuSans-6f"/>
     <use x="854.345703" xlink:href="#DejaVuSans-6e"/>
     <use x="917.724609" xlink:href="#DejaVuSans-20"/>
     <use x="949.511719" xlink:href="#DejaVuSans-6f"/>
     <use x="1010.693359" xlink:href="#DejaVuSans-66"/>
     <use x="1045.898438" xlink:href="#DejaVuSans-20"/>
     <use x="1077.685547" xlink:href="#DejaVuSans-4c"/>
     <use x="1133.398438" xlink:href="#DejaVuSans-69"/>
     <use x="1161.181641" xlink:href="#DejaVuSans-6e"/>
     <use x="1224.560547" xlink:href="#DejaVuSans-65"/>
     <use x="1286.083984" xlink:href="#DejaVuSans-61"/>
     <use x="1347.363281" xlink:href="#DejaVuSans-72"/>
     <use x="1388.476562" xlink:href="#DejaVuSans-20"/>
     <use x="1420.263672" xlink:href="#DejaVuSans-50"/>
     <use x="1478.816406" xlink:href="#DejaVuSans-72"/>
     <use x="1517.679688" xlink:href="#DejaVuSans-6f"/>
     <use x="1578.861328" xlink:href="#DejaVuSans-67"/>
     <use x="1642.337891" xlink:href="#DejaVuSans-72"/>
     <use x="1683.451172" xlink:href="#DejaVuSans-61"/>
     <use x="1744.730469" xlink:href="#DejaVuSans-6d"/>
     <use x="1842.142578" xlink:href="#DejaVuSans-6d"/>
     <use x="1939.554688" xlink:href="#DejaVuSans-69"/>
     <use x="1967.337891" xlink:href="#DejaVuSans-6e"/>
     <use x="2030.716797" xlink:href="#DejaVuSans-67"/>
     <use x="2094.193359" xlink:href="#DejaVuSans-20"/>
     <use x="2125.980469" xlink:href="#DejaVuSans-50"/>
     <use x="2184.533203" xlink:href="#DejaVuSans-72"/>
     <use x="2223.396484" xlink:href="#DejaVuSans-6f"/>
     <use x="2284.578125" xlink:href="#DejaVuSans-62"/>
     <use x="2348.054688" xlink:href="#DejaVuSans-6c"/>
     <use x="2375.837891" xlink:href="#DejaVuSans-65"/>
     <use x="2437.361328" xlink:href="#DejaVuSans-6d"/>
    </g>
   </g>
   <g id="legend_1">
    <g id="patch_5">
     <path d="M 547.1 121.215312 
L 641 121.215312 
Q 643 121.215312 643 119.215312 
L 643 76.12 
Q 643 74.12 641 74.12 
L 547.1 74.12 
Q 545.1 74.12 545.1 76.12 
L 545.1 119.215312 
Q 545.1 121.215312 547.1 121.215312 
z
" style="fill:#ffffff;opacity:0.8;stroke:#cccccc;stroke-linejoin:miter;"/>
    </g>
    <g id="line2d_30">
     <path d="M 549.1 82.218437 
L 569.1 82.218437 
" style="fill:none;stroke:#10a37f;stroke-linecap:square;stroke-width:1.5;"/>
    </g>
    <g id="line2d_31"/>
    <g id="text_16">
     <!-- $x + 2y \leq 8$ -->
     <g style="fill:#333333;" transform="translate(577.1 85.718437)scale(0.1 -0.1)">
      <defs>
       <path d="M 2944 4013 
L 2944 2272 
L 4684 2272 
L 4684 1741 
L 2944 1741 
L 2944 0 
L 2419 0 
L 2419 1741 
L 678 1741 
L 678 2272 
L 2419 2272 
L 2419 4013 
L 2944 4013 
z
" id="DejaVuSans-2b" transform="scale(0.015625)"/>
       <path d="M 4684 3175 
L 1684 2309 
L 4684 1453 
L 4684 897 
L 678 2047 
L 678 2578 
L 4684 3725 
L 4684 3175 
z
M 678 531 
L 4684 531 
L 4684 0 
L 678 0 
L 678 531 
z
" id="DejaVuSans-2264" transform="scale(0.015625)"/>
      </defs>
      <use transform="translate(0 0.78125)" xlink:href="#DejaVuSans-Oblique-78"/>
      <use transform="translate(78.662109 0.78125)" xlink:href="#DejaVuSans-2b"/>
      <use transform="translate(181.933594 0.78125)" xlink:href="#DejaVuSans-32"/>
      <use transform="translate(245.556641 0.78125)" xlink:href="#DejaVuSans-Oblique-79"/>
      <use transform="translate(324.21875 0.78125)" xlink:href="#DejaVuSans-2264"/>
      <use transform="translate(427.490234 0.78125)" xlink:href="#DejaVuSans-38"/>
     </g>
    </g>
    <g id="line2d_32">
     <path d="M 549.1 96.916875 
L 569.1 96.916875 
" style="fill:none;stroke:#147960;stroke-linecap:square;stroke-width:1.5;"/>
    </g>
    <g id="line2d_33"/>
    <g id="text_17">
     <!-- $3x + 2y \leq 12$ -->
     <g style="fill:#333333;" transform="translate(577.1 100.416875)scale(0.1 -0.1)">
      <defs>
       <path d="M 2597 2516 
Q 3050 2419 3304 2112 
Q 3559 1806 3559 1356 
Q 3559 666 3084 287 
Q 2609 -91 1734 -91 
Q 1441 -91 1130 -33 
Q 819 25 488 141 
L 488 750 
Q 750 597 1062 519 
Q 1375 441 1716 441 
Q 2309 441 2620 675 
Q 2931 909 2931 1356 
Q 2931 1769 2642 2001 
Q 2353 2234 1838 2234 
L 1294 2234 
L 1294 2753 
L 1863 2753 
Q 2328 2753 2575 2939 
Q 2822 3125 2822 3475 
Q 2822 3834 2567 4026 
Q 2313 4219 1838 4219 
Q 1578 4219 1281 4162 
Q 984 4106 628 3988 
L 628 4550 
Q 988 4650 1302 4700 
Q 1616 4750 1894 4750 
Q 2613 4750 3031 4423 
Q 3450 4097 3450 3541 
Q 3450 3153 3228 2886 
Q 3006 2619 2597 2516 
z
" id="DejaVuSans-33" transform="scale(0.015625)"/>
      </defs>
      <use transform="translate(0 0.78125)" xlink:href="#DejaVuSans-33"/>
      <use transform="translate(63.623047 0.78125)" xlink:href="#DejaVuSans-Oblique-78"/>
      <use transform="translate(142.285156 0.78125)" xlink:href="#DejaVuSans-2b"/>
      <use transform="translate(245.556641 0.78125)" xlink:href="#DejaVuSans-32"/>
      <use transform="translate(309.179688 0.78125)" xlink:href="#DejaVuSans-Oblique-79"/>
      <use transform="translate(387.841797 0.78125)" xlink:href="#DejaVuSans-2264"/>
      <use transform="translate(491.113281 0.78125)" xlink:href="#DejaVuSans-31"/>
      <use transform="translate(554.736328 0.78125)" xlink:href="#DejaVuSans-32"/>
     </g>
    </g>
    <g id="line2d_34">
     <path d="M 549.1 111.615313 
L 569.1 111.615313 
" style="fill:none;stroke:#024736;stroke-dasharray:7.4,3.2;stroke-dashoffset:0;stroke-width:2;"/>
    </g>
    <g id="line2d_35"/>
    <g id="text_18">
     <!-- $3x + 4y = 12$ -->
     <g style="fill:#333333;" transform="translate(577.1 115.115313)scale(0.1 -0.1)">
      <defs>
       <path d="M 678 2906 
L 4684 2906 
L 4684 2381 
L 678 2381 
L 678 2906 
z
M 678 1631 
L 4684 1631 
L 4684 1100 
L 678 1100 
L 678 1631 
z
" id="DejaVuSans-3d" transform="scale(0.015625)"/>
      </defs>
      <use transform="translate(0 0.78125)" xlink:href="#DejaVuSans-33"/>
      <use transform="translate(63.623047 0.78125)" xlink:href="#DejaVuSans-Oblique-78"/>
      <use transform="translate(142.285156 0.78125)" xlink:href="#DejaVuSans-2b"/>
      <use transform="translate(245.556641 0.78125)" xlink:href="#DejaVuSans-34"/>
      <use transform="translate(309.179688 0.78125)" xlink:href="#DejaVuSans-Oblique-79"/>
      <use transform="translate(387.841797 0.78125)" xlink:href="#DejaVuSans-3d"/>
      <use transform="translate(491.113281 0.78125)" xlink:href="#DejaVuSans-31"/>
      <use transform="translate(554.736328 0.78125)" xlink:href="#DejaVuSans-32"/>
     </g>
    </g>
   </g>
  </g>
 </g>
 <defs>
  <clipPath id="p4d9e861fa2">
   <rect height="443.52" width="558" x="90" y="69.12"/>
  </clipPath>
 </defs>
</svg>
